<svg width="280" height="150" viewBox="0 0 280 150" fill="none" xmlns="http://www.w3.org/2000/svg">
<path d="M43.5 103.75V73.625C43.5 71.4583 43.1458 69.6042 42.4375 68.0625C41.7292 66.4792 40.625 65.25 39.125 64.375C37.6667 63.5 35.7708 63.0625 33.4375 63.0625C31.4375 63.0625 29.7083 63.4167 28.25 64.125C26.7917 64.7917 25.6667 65.7708 24.875 67.0625C24.0833 68.3125 23.6875 69.7917 23.6875 71.5H5.6875C5.6875 68.625 6.35417 65.8958 7.6875 63.3125C9.02083 60.7292 10.9583 58.4583 13.5 56.5C16.0417 54.5 19.0625 52.9375 22.5625 51.8125C26.1042 50.6875 30.0625 50.125 34.4375 50.125C39.6875 50.125 44.3542 51 48.4375 52.75C52.5208 54.5 55.7292 57.125 58.0625 60.625C60.4375 64.125 61.625 68.5 61.625 73.75V102.688C61.625 106.396 61.8542 109.438 62.3125 111.812C62.7708 114.146 63.4375 116.188 64.3125 117.938V119H46.125C45.25 117.167 44.5833 114.875 44.125 112.125C43.7083 109.333 43.5 106.542 43.5 103.75ZM45.875 77.8125L46 88H35.9375C33.5625 88 31.5 88.2708 29.75 88.8125C28 89.3542 26.5625 90.125 25.4375 91.125C24.3125 92.0833 23.4792 93.2083 22.9375 94.5C22.4375 95.7917 22.1875 97.2083 22.1875 98.75C22.1875 100.292 22.5417 101.688 23.25 102.938C23.9583 104.146 24.9792 105.104 26.3125 105.812C27.6458 106.479 29.2083 106.812 31 106.812C33.7083 106.812 36.0625 106.271 38.0625 105.188C40.0625 104.104 41.6042 102.771 42.6875 101.188C43.8125 99.6042 44.3958 98.1042 44.4375 96.6875L49.1875 104.312C48.5208 106.021 47.6042 107.792 46.4375 109.625C45.3125 111.458 43.875 113.188 42.125 114.812C40.375 116.396 38.2708 117.708 35.8125 118.75C33.3542 119.75 30.4375 120.25 27.0625 120.25C22.7708 120.25 18.875 119.396 15.375 117.688C11.9167 115.938 9.16667 113.542 7.125 110.5C5.125 107.417 4.125 103.917 4.125 100C4.125 96.4583 4.79167 93.3125 6.125 90.5625C7.45833 87.8125 9.41667 85.5 12 83.625C14.625 81.7083 17.8958 80.2708 21.8125 79.3125C25.7292 78.3125 30.2708 77.8125 35.4375 77.8125H45.875ZM76.5 51.375H94.5625V123.062C94.5625 128.062 93.6458 132.292 91.8125 135.75C89.9792 139.208 87.3333 141.833 83.875 143.625C80.4167 145.417 76.2292 146.312 71.3125 146.312C69.7708 146.312 68.2708 146.229 66.8125 146.062C65.3125 145.896 63.7708 145.625 62.1875 145.25L62.25 131.438C63.25 131.604 64.2292 131.729 65.1875 131.812C66.1042 131.938 67.0417 132 68 132C69.875 132 71.4375 131.688 72.6875 131.062C73.9375 130.438 74.875 129.458 75.5 128.125C76.1667 126.833 76.5 125.146 76.5 123.062V51.375ZM75.0625 33.75C75.0625 31.125 75.9792 28.9583 77.8125 27.25C79.6875 25.5417 82.1458 24.6875 85.1875 24.6875C88.2708 24.6875 90.7292 25.5417 92.5625 27.25C94.3958 28.9583 95.3125 31.125 95.3125 33.75C95.3125 36.375 94.3958 38.5417 92.5625 40.25C90.7292 41.9583 88.2708 42.8125 85.1875 42.8125C82.1458 42.8125 79.6875 41.9583 77.8125 40.25C75.9792 38.5417 75.0625 36.375 75.0625 33.75Z" fill="black"/>
<path d="M126.094 110.031C126.094 109.198 125.906 108.427 125.531 107.719C125.177 106.99 124.438 106.333 123.312 105.75C122.208 105.146 120.542 104.625 118.312 104.188C116.438 103.792 114.74 103.323 113.219 102.781C111.719 102.24 110.438 101.583 109.375 100.812C108.333 100.042 107.531 99.1354 106.969 98.0938C106.406 97.0521 106.125 95.8333 106.125 94.4375C106.125 93.1042 106.417 91.8438 107 90.6562C107.604 89.4688 108.448 88.4167 109.531 87.5C110.635 86.5833 111.958 85.8646 113.5 85.3438C115.042 84.8229 116.76 84.5625 118.656 84.5625C121.365 84.5625 123.677 85.0417 125.594 86C127.51 86.9583 128.979 88.2396 130 89.8438C131.021 91.4271 131.531 93.1875 131.531 95.125H125.75C125.75 94.1875 125.469 93.2812 124.906 92.4062C124.365 91.5104 123.562 90.7708 122.5 90.1875C121.458 89.6042 120.177 89.3125 118.656 89.3125C117.052 89.3125 115.75 89.5625 114.75 90.0625C113.771 90.5417 113.052 91.1562 112.594 91.9062C112.156 92.6562 111.938 93.4479 111.938 94.2812C111.938 94.9062 112.042 95.4688 112.25 95.9688C112.479 96.4479 112.875 96.8958 113.438 97.3125C114 97.7083 114.792 98.0833 115.812 98.4375C116.833 98.7917 118.135 99.1458 119.719 99.5C122.49 100.125 124.771 100.875 126.562 101.75C128.354 102.625 129.688 103.698 130.562 104.969C131.438 106.24 131.875 107.781 131.875 109.594C131.875 111.073 131.562 112.427 130.938 113.656C130.333 114.885 129.448 115.948 128.281 116.844C127.135 117.719 125.76 118.406 124.156 118.906C122.573 119.385 120.792 119.625 118.812 119.625C115.833 119.625 113.312 119.094 111.25 118.031C109.188 116.969 107.625 115.594 106.562 113.906C105.5 112.219 104.969 110.438 104.969 108.562H110.781C110.865 110.146 111.323 111.406 112.156 112.344C112.99 113.26 114.01 113.917 115.219 114.312C116.427 114.688 117.625 114.875 118.812 114.875C120.396 114.875 121.719 114.667 122.781 114.25C123.865 113.833 124.688 113.26 125.25 112.531C125.812 111.802 126.094 110.969 126.094 110.031ZM153.625 85.1875V89.625H135.344V85.1875H153.625ZM141.531 76.9688H147.312V110.625C147.312 111.771 147.49 112.635 147.844 113.219C148.198 113.802 148.656 114.188 149.219 114.375C149.781 114.562 150.385 114.656 151.031 114.656C151.51 114.656 152.01 114.615 152.531 114.531C153.073 114.427 153.479 114.344 153.75 114.281L153.781 119C153.323 119.146 152.719 119.281 151.969 119.406C151.24 119.552 150.354 119.625 149.312 119.625C147.896 119.625 146.594 119.344 145.406 118.781C144.219 118.219 143.271 117.281 142.562 115.969C141.875 114.635 141.531 112.844 141.531 110.594V76.9688ZM181.094 111.188V85.1875H186.906V119H181.375L181.094 111.188ZM182.188 104.062L184.594 104C184.594 106.25 184.354 108.333 183.875 110.25C183.417 112.146 182.667 113.792 181.625 115.188C180.583 116.583 179.219 117.677 177.531 118.469C175.844 119.24 173.792 119.625 171.375 119.625C169.729 119.625 168.219 119.385 166.844 118.906C165.49 118.427 164.323 117.688 163.344 116.688C162.365 115.688 161.604 114.385 161.062 112.781C160.542 111.177 160.281 109.25 160.281 107V85.1875H166.062V107.062C166.062 108.583 166.229 109.844 166.562 110.844C166.917 111.823 167.385 112.604 167.969 113.188C168.573 113.75 169.24 114.146 169.969 114.375C170.719 114.604 171.49 114.719 172.281 114.719C174.74 114.719 176.688 114.25 178.125 113.312C179.562 112.354 180.594 111.073 181.219 109.469C181.865 107.844 182.188 106.042 182.188 104.062ZM217.031 112.438V71H222.844V119H217.531L217.031 112.438ZM194.281 102.469V101.812C194.281 99.2292 194.594 96.8854 195.219 94.7812C195.865 92.6562 196.771 90.8333 197.938 89.3125C199.125 87.7917 200.531 86.625 202.156 85.8125C203.802 84.9792 205.635 84.5625 207.656 84.5625C209.781 84.5625 211.635 84.9375 213.219 85.6875C214.823 86.4167 216.177 87.4896 217.281 88.9062C218.406 90.3021 219.292 91.9896 219.938 93.9688C220.583 95.9479 221.031 98.1875 221.281 100.688V103.562C221.052 106.042 220.604 108.271 219.938 110.25C219.292 112.229 218.406 113.917 217.281 115.312C216.177 116.708 214.823 117.781 213.219 118.531C211.615 119.26 209.74 119.625 207.594 119.625C205.615 119.625 203.802 119.198 202.156 118.344C200.531 117.49 199.125 116.292 197.938 114.75C196.771 113.208 195.865 111.396 195.219 109.312C194.594 107.208 194.281 104.927 194.281 102.469ZM200.094 101.812V102.469C200.094 104.156 200.26 105.74 200.594 107.219C200.948 108.698 201.49 110 202.219 111.125C202.948 112.25 203.875 113.135 205 113.781C206.125 114.406 207.469 114.719 209.031 114.719C210.948 114.719 212.521 114.312 213.75 113.5C215 112.688 216 111.615 216.75 110.281C217.5 108.948 218.083 107.5 218.5 105.938V98.4062C218.25 97.2604 217.885 96.1562 217.406 95.0938C216.948 94.0104 216.344 93.0521 215.594 92.2188C214.865 91.3646 213.958 90.6875 212.875 90.1875C211.812 89.6875 210.552 89.4375 209.094 89.4375C207.51 89.4375 206.146 89.7708 205 90.4375C203.875 91.0833 202.948 91.9792 202.219 93.125C201.49 94.25 200.948 95.5625 200.594 97.0625C200.26 98.5417 200.094 100.125 200.094 101.812ZM238.125 85.1875V119H232.312V85.1875H238.125ZM231.875 76.2188C231.875 75.2812 232.156 74.4896 232.719 73.8438C233.302 73.1979 234.156 72.875 235.281 72.875C236.385 72.875 237.229 73.1979 237.812 73.8438C238.417 74.4896 238.719 75.2812 238.719 76.2188C238.719 77.1146 238.417 77.8854 237.812 78.5312C237.229 79.1562 236.385 79.4688 235.281 79.4688C234.156 79.4688 233.302 79.1562 232.719 78.5312C232.156 77.8854 231.875 77.1146 231.875 76.2188ZM245.875 102.469V101.75C245.875 99.3125 246.229 97.0521 246.938 94.9688C247.646 92.8646 248.667 91.0417 250 89.5C251.333 87.9375 252.948 86.7292 254.844 85.875C256.74 85 258.865 84.5625 261.219 84.5625C263.594 84.5625 265.729 85 267.625 85.875C269.542 86.7292 271.167 87.9375 272.5 89.5C273.854 91.0417 274.885 92.8646 275.594 94.9688C276.302 97.0521 276.656 99.3125 276.656 101.75V102.469C276.656 104.906 276.302 107.167 275.594 109.25C274.885 111.333 273.854 113.156 272.5 114.719C271.167 116.26 269.552 117.469 267.656 118.344C265.781 119.198 263.656 119.625 261.281 119.625C258.906 119.625 256.771 119.198 254.875 118.344C252.979 117.469 251.354 116.26 250 114.719C248.667 113.156 247.646 111.333 246.938 109.25C246.229 107.167 245.875 104.906 245.875 102.469ZM251.656 101.75V102.469C251.656 104.156 251.854 105.75 252.25 107.25C252.646 108.729 253.24 110.042 254.031 111.188C254.844 112.333 255.854 113.24 257.062 113.906C258.271 114.552 259.677 114.875 261.281 114.875C262.865 114.875 264.25 114.552 265.438 113.906C266.646 113.24 267.646 112.333 268.438 111.188C269.229 110.042 269.823 108.729 270.219 107.25C270.635 105.75 270.844 104.156 270.844 102.469V101.75C270.844 100.083 270.635 98.5104 270.219 97.0312C269.823 95.5312 269.219 94.2083 268.406 93.0625C267.615 91.8958 266.615 90.9792 265.406 90.3125C264.219 89.6458 262.823 89.3125 261.219 89.3125C259.635 89.3125 258.24 89.6458 257.031 90.3125C255.844 90.9792 254.844 91.8958 254.031 93.0625C253.24 94.2083 252.646 95.5312 252.25 97.0312C251.854 98.5104 251.656 100.083 251.656 101.75Z" fill="black"/>
</svg>
