<svg width="384" height="124" viewBox="0 0 384 124" fill="none" xmlns="http://www.w3.org/2000/svg">
<path d="M39.875 80.75V50.625C39.875 48.4583 39.5208 46.6042 38.8125 45.0625C38.1042 43.4792 37 42.25 35.5 41.375C34.0417 40.5 32.1458 40.0625 29.8125 40.0625C27.8125 40.0625 26.0833 40.4167 24.625 41.125C23.1667 41.7917 22.0417 42.7708 21.25 44.0625C20.4583 45.3125 20.0625 46.7917 20.0625 48.5H2.0625C2.0625 45.625 2.72917 42.8958 4.0625 40.3125C5.39583 37.7292 7.33333 35.4583 9.875 33.5C12.4167 31.5 15.4375 29.9375 18.9375 28.8125C22.4792 27.6875 26.4375 27.125 30.8125 27.125C36.0625 27.125 40.7292 28 44.8125 29.75C48.8958 31.5 52.1042 34.125 54.4375 37.625C56.8125 41.125 58 45.5 58 50.75V79.6875C58 83.3958 58.2292 86.4375 58.6875 88.8125C59.1458 91.1458 59.8125 93.1875 60.6875 94.9375V96H42.5C41.625 94.1667 40.9583 91.875 40.5 89.125C40.0833 86.3333 39.875 83.5417 39.875 80.75ZM42.25 54.8125L42.375 65H32.3125C29.9375 65 27.875 65.2708 26.125 65.8125C24.375 66.3542 22.9375 67.125 21.8125 68.125C20.6875 69.0833 19.8542 70.2083 19.3125 71.5C18.8125 72.7917 18.5625 74.2083 18.5625 75.75C18.5625 77.2917 18.9167 78.6875 19.625 79.9375C20.3333 81.1458 21.3542 82.1042 22.6875 82.8125C24.0208 83.4792 25.5833 83.8125 27.375 83.8125C30.0833 83.8125 32.4375 83.2708 34.4375 82.1875C36.4375 81.1042 37.9792 79.7708 39.0625 78.1875C40.1875 76.6042 40.7708 75.1042 40.8125 73.6875L45.5625 81.3125C44.8958 83.0208 43.9792 84.7917 42.8125 86.625C41.6875 88.4583 40.25 90.1875 38.5 91.8125C36.75 93.3958 34.6458 94.7083 32.1875 95.75C29.7292 96.75 26.8125 97.25 23.4375 97.25C19.1458 97.25 15.25 96.3958 11.75 94.6875C8.29167 92.9375 5.54167 90.5417 3.5 87.5C1.5 84.4167 0.5 80.9167 0.5 77C0.5 73.4583 1.16667 70.3125 2.5 67.5625C3.83333 64.8125 5.79167 62.5 8.375 60.625C11 58.7083 14.2708 57.2708 18.1875 56.3125C22.1042 55.3125 26.6458 54.8125 31.8125 54.8125H42.25ZM90.875 0V96H72.8125V0H90.875ZM136.875 97.25C131.625 97.25 126.917 96.4167 122.75 94.75C118.583 93.0417 115.042 90.6875 112.125 87.6875C109.25 84.6875 107.042 81.2083 105.5 77.25C103.958 73.25 103.188 69 103.188 64.5V62C103.188 56.875 103.917 52.1875 105.375 47.9375C106.833 43.6875 108.917 40 111.625 36.875C114.375 33.75 117.708 31.3542 121.625 29.6875C125.542 27.9792 129.958 27.125 134.875 27.125C139.667 27.125 143.917 27.9167 147.625 29.5C151.333 31.0833 154.438 33.3333 156.938 36.25C159.479 39.1667 161.396 42.6667 162.688 46.75C163.979 50.7917 164.625 55.2917 164.625 60.25V67.75H110.875V55.75H146.938V54.375C146.938 51.875 146.479 49.6458 145.562 47.6875C144.688 45.6875 143.354 44.1042 141.562 42.9375C139.771 41.7708 137.479 41.1875 134.688 41.1875C132.312 41.1875 130.271 41.7083 128.562 42.75C126.854 43.7917 125.458 45.25 124.375 47.125C123.333 49 122.542 51.2083 122 53.75C121.5 56.25 121.25 59 121.25 62V64.5C121.25 67.2083 121.625 69.7083 122.375 72C123.167 74.2917 124.271 76.2708 125.688 77.9375C127.146 79.6042 128.896 80.8958 130.938 81.8125C133.021 82.7292 135.375 83.1875 138 83.1875C141.25 83.1875 144.271 82.5625 147.062 81.3125C149.896 80.0208 152.333 78.0833 154.375 75.5L163.125 85C161.708 87.0417 159.771 89 157.312 90.875C154.896 92.75 151.979 94.2917 148.562 95.5C145.146 96.6667 141.25 97.25 136.875 97.25ZM175.875 28.375H193.938V100.062C193.938 105.062 193.021 109.292 191.188 112.75C189.354 116.208 186.708 118.833 183.25 120.625C179.792 122.417 175.604 123.312 170.688 123.312C169.146 123.312 167.646 123.229 166.188 123.062C164.688 122.896 163.146 122.625 161.562 122.25L161.625 108.438C162.625 108.604 163.604 108.729 164.562 108.812C165.479 108.938 166.417 109 167.375 109C169.25 109 170.812 108.688 172.062 108.062C173.312 107.438 174.25 106.458 174.875 105.125C175.542 103.833 175.875 102.146 175.875 100.062V28.375ZM174.438 10.75C174.438 8.125 175.354 5.95833 177.188 4.25C179.062 2.54167 181.521 1.6875 184.562 1.6875C187.646 1.6875 190.104 2.54167 191.938 4.25C193.771 5.95833 194.688 8.125 194.688 10.75C194.688 13.375 193.771 15.5417 191.938 17.25C190.104 18.9583 187.646 19.8125 184.562 19.8125C181.521 19.8125 179.062 18.9583 177.188 17.25C175.354 15.5417 174.438 13.375 174.438 10.75ZM239.375 97.25C234.125 97.25 229.417 96.4167 225.25 94.75C221.083 93.0417 217.542 90.6875 214.625 87.6875C211.75 84.6875 209.542 81.2083 208 77.25C206.458 73.25 205.688 69 205.688 64.5V62C205.688 56.875 206.417 52.1875 207.875 47.9375C209.333 43.6875 211.417 40 214.125 36.875C216.875 33.75 220.208 31.3542 224.125 29.6875C228.042 27.9792 232.458 27.125 237.375 27.125C242.167 27.125 246.417 27.9167 250.125 29.5C253.833 31.0833 256.938 33.3333 259.438 36.25C261.979 39.1667 263.896 42.6667 265.188 46.75C266.479 50.7917 267.125 55.2917 267.125 60.25V67.75H213.375V55.75H249.438V54.375C249.438 51.875 248.979 49.6458 248.062 47.6875C247.188 45.6875 245.854 44.1042 244.062 42.9375C242.271 41.7708 239.979 41.1875 237.188 41.1875C234.812 41.1875 232.771 41.7083 231.062 42.75C229.354 43.7917 227.958 45.25 226.875 47.125C225.833 49 225.042 51.2083 224.5 53.75C224 56.25 223.75 59 223.75 62V64.5C223.75 67.2083 224.125 69.7083 224.875 72C225.667 74.2917 226.771 76.2708 228.188 77.9375C229.646 79.6042 231.396 80.8958 233.438 81.8125C235.521 82.7292 237.875 83.1875 240.5 83.1875C243.75 83.1875 246.771 82.5625 249.562 81.3125C252.396 80.0208 254.833 78.0833 256.875 75.5L265.625 85C264.208 87.0417 262.271 89 259.812 90.875C257.396 92.75 254.479 94.2917 251.062 95.5C247.646 96.6667 243.75 97.25 239.375 97.25ZM295.375 43.125V96H277.375V28.375H294.312L295.375 43.125ZM315.75 27.9375L315.438 44.625C314.562 44.5 313.5 44.3958 312.25 44.3125C311.042 44.1875 309.938 44.125 308.938 44.125C306.396 44.125 304.188 44.4583 302.312 45.125C300.479 45.75 298.938 46.6875 297.688 47.9375C296.479 49.1875 295.562 50.7083 294.938 52.5C294.354 54.2917 294.021 56.3333 293.938 58.625L290.312 57.5C290.312 53.125 290.75 49.1042 291.625 45.4375C292.5 41.7292 293.771 38.5 295.438 35.75C297.146 33 299.229 30.875 301.688 29.375C304.146 27.875 306.958 27.125 310.125 27.125C311.125 27.125 312.146 27.2083 313.188 27.375C314.229 27.5 315.083 27.6875 315.75 27.9375ZM319.5 62.875V61.5625C319.5 56.6042 320.208 52.0417 321.625 47.875C323.042 43.6667 325.104 40.0208 327.812 36.9375C330.521 33.8542 333.854 31.4583 337.812 29.75C341.771 28 346.312 27.125 351.438 27.125C356.562 27.125 361.125 28 365.125 29.75C369.125 31.4583 372.479 33.8542 375.188 36.9375C377.938 40.0208 380.021 43.6667 381.438 47.875C382.854 52.0417 383.562 56.6042 383.562 61.5625V62.875C383.562 67.7917 382.854 72.3542 381.438 76.5625C380.021 80.7292 377.938 84.375 375.188 87.5C372.479 90.5833 369.146 92.9792 365.188 94.6875C361.229 96.3958 356.688 97.25 351.562 97.25C346.438 97.25 341.875 96.3958 337.875 94.6875C333.917 92.9792 330.562 90.5833 327.812 87.5C325.104 84.375 323.042 80.7292 321.625 76.5625C320.208 72.3542 319.5 67.7917 319.5 62.875ZM337.5 61.5625V62.875C337.5 65.7083 337.75 68.3542 338.25 70.8125C338.75 73.2708 339.542 75.4375 340.625 77.3125C341.75 79.1458 343.208 80.5833 345 81.625C346.792 82.6667 348.979 83.1875 351.562 83.1875C354.062 83.1875 356.208 82.6667 358 81.625C359.792 80.5833 361.229 79.1458 362.312 77.3125C363.396 75.4375 364.188 73.2708 364.688 70.8125C365.229 68.3542 365.5 65.7083 365.5 62.875V61.5625C365.5 58.8125 365.229 56.2292 364.688 53.8125C364.188 51.3542 363.375 49.1875 362.25 47.3125C361.167 45.3958 359.729 43.8958 357.938 42.8125C356.146 41.7292 353.979 41.1875 351.438 41.1875C348.896 41.1875 346.729 41.7292 344.938 42.8125C343.188 43.8958 341.75 45.3958 340.625 47.3125C339.542 49.1875 338.75 51.3542 338.25 53.8125C337.75 56.2292 337.5 58.8125 337.5 61.5625Z" fill="white"/>
</svg>
